HIERARCHY
ROOT Hips
{
	OFFSET 0.000000 71.427986 0.000000
	CHANNELS 6 Xposition Yposition Zposition Xrotation Yrotation Zrotation
	JOINT Pelvis
	{
		OFFSET 0.000000 0.000000 0.000000
		CHANNELS 3 Xrotation Yrotation Zrotation
		JOINT LeftUpLeg
		{
			OFFSET 6.797100 -2.508499 -1.318700
			CHANNELS 3 Xrotation Yrotation Zrotation
			JOINT LeftLeg
			{
				OFFSET 0.069008 -29.241863 0.690200
				CHANNELS 3 Xrotation Yrotation Zrotation
				JOINT LeftFoot
				{
					OFFSET -0.069008 -29.568123 -0.266800
					CHANNELS 3 Xrotation Yrotation Zrotation
					JOINT LeftToeBase
					{
						OFFSET 3.145500 -8.631000 16.059900
						CHANNELS 3 Xrotation Yrotation Zrotation
						End Site
						{
							OFFSET 0.000000 18.501587 0.000000
						}
					}
				}
			}
			JOINT Left_ShortSleeve
			{
				OFFSET 0.265923 -10.480953 1.153800
				CHANNELS 3 Xrotation Yrotation Zrotation
				End Site
				{
					OFFSET 1.725763 19.823879 0.000000
				}
			}
		}
		JOINT RightUpLeg
		{
			OFFSET -6.797100 -2.508499 -1.318700
			CHANNELS 3 Xrotation Yrotation Zrotation
			JOINT RightLeg
			{
				OFFSET -0.082453 -29.241932 0.688000
				CHANNELS 3 Xrotation Yrotation Zrotation
				JOINT RightFoot
				{
					OFFSET 0.082453 -29.568058 -0.264600
					CHANNELS 3 Xrotation Yrotation Zrotation
					JOINT RightToeBase
					{
						OFFSET -3.115300 -8.682800 16.113400
						CHANNELS 3 Xrotation Yrotation Zrotation
						End Site
						{
							OFFSET 0.000000 18.567114 0.000000
						}
					}
				}
			}
			JOINT Right_ShortSleeve
			{
				OFFSET -0.265923 -10.480953 1.153800
				CHANNELS 3 Xrotation Yrotation Zrotation
				End Site
				{
					OFFSET -1.725766 19.823910 0.000000
				}
			}
		}
	}
	JOINT Spine
	{
		OFFSET 0.000000 13.368103 0.470500
		CHANNELS 3 Xrotation Yrotation Zrotation
		JOINT Spine1
		{
			OFFSET 0.147000 13.837402 0.538800
			CHANNELS 3 Xrotation Yrotation Zrotation
			JOINT Spine2
			{
				OFFSET 0.168000 16.242897 -1.435500
				CHANNELS 3 Xrotation Yrotation Zrotation
				JOINT Neck
				{
					OFFSET 0.217200 18.631500 -1.679100
					CHANNELS 3 Xrotation Yrotation Zrotation
					JOINT Head
					{
						OFFSET 0.000000 6.599396 1.385900
						CHANNELS 3 Xrotation Yrotation Zrotation
						JOINT Hat
						{
							OFFSET -0.532200 27.220596 -10.096100
							CHANNELS 3 Xrotation Yrotation Zrotation
							End Site
							{
								OFFSET 0.000000 22.029861 0.000000
							}
						}
						JOINT HairD
						{
							OFFSET -10.777400 17.437393 -1.325900
							CHANNELS 3 Xrotation Yrotation Zrotation
							JOINT HairD1
							{
								OFFSET -3.290299 -11.051193 1.062200
								CHANNELS 3 Xrotation Yrotation Zrotation
								End Site
								{
									OFFSET 0.000000 11.579437 0.000000
								}
							}
						}
						JOINT HairB
						{
							OFFSET -10.777400 17.437393 1.467900
							CHANNELS 3 Xrotation Yrotation Zrotation
							JOINT HairB1
							{
								OFFSET -1.561200 -12.956299 3.590200
								CHANNELS 3 Xrotation Yrotation Zrotation
								End Site
								{
									OFFSET 0.000000 13.534866 0.000000
								}
							}
						}
						JOINT HairA
						{
							OFFSET 9.713100 17.437393 1.467900
							CHANNELS 3 Xrotation Yrotation Zrotation
							JOINT HairA1
							{
								OFFSET 1.561200 -12.956299 3.590200
								CHANNELS 3 Xrotation Yrotation Zrotation
								End Site
								{
									OFFSET 0.000000 13.534866 0.000000
								}
							}
						}
						JOINT HairC
						{
							OFFSET 9.713100 17.437393 -1.325900
							CHANNELS 3 Xrotation Yrotation Zrotation
							JOINT HairC1
							{
								OFFSET 3.290300 -11.051193 1.062200
								CHANNELS 3 Xrotation Yrotation Zrotation
								End Site
								{
									OFFSET 0.000000 11.579437 0.000000
								}
							}
						}
					}
				}
				JOINT LeftShoulder
				{
					OFFSET 5.101800 15.108002 -2.763700
					CHANNELS 3 Xrotation Yrotation Zrotation
					JOINT LeftArm
					{
						OFFSET 9.825497 2.506317 -1.597400
						CHANNELS 3 Xrotation Yrotation Zrotation
						JOINT LeftForeArm
						{
							OFFSET 21.966244 0.000000 0.000000
							CHANNELS 3 Xrotation Yrotation Zrotation
							JOINT LeftHand
							{
								OFFSET 33.879036 0.000000 0.000000
								CHANNELS 3 Xrotation Yrotation Zrotation
								JOINT LeftHandThumb1
								{
									OFFSET 6.715286 -2.359680 3.363841
									CHANNELS 3 Xrotation Yrotation Zrotation
									JOINT LeftHandThumb2
									{
										OFFSET 2.507072 -1.447464 1.447461
										CHANNELS 3 Xrotation Yrotation Zrotation
										JOINT LeftHandThumb3
										{
											OFFSET 2.898338 -1.673355 1.673357
											CHANNELS 3 Xrotation Yrotation Zrotation
											End Site
											{
												OFFSET -0.295959 3.727692 -0.131651
											}
										}
									}
								}
								JOINT LeftHandIndex1
								{
									OFFSET 14.190811 -0.254547 3.840278
									CHANNELS 3 Xrotation Yrotation Zrotation
									JOINT LeftHandIndex2
									{
										OFFSET 3.551727 0.000000 -0.000000
										CHANNELS 3 Xrotation Yrotation Zrotation
										JOINT LeftHandIndex3
										{
											OFFSET 2.894196 0.000000 0.000000
											CHANNELS 3 Xrotation Yrotation Zrotation
											End Site
											{
												OFFSET -1.000603 2.690872 0.366626
											}
										}
									}
								}
								JOINT LeftHandMiddle1
								{
									OFFSET 13.776489 0.000000 0.000000
									CHANNELS 3 Xrotation Yrotation Zrotation
									JOINT LeftHandMiddle2
									{
										OFFSET 3.438232 0.000000 0.000000
										CHANNELS 3 Xrotation Yrotation Zrotation
										JOINT LeftHandMiddle3
										{
											OFFSET 3.691551 0.000000 0.000000
											CHANNELS 3 Xrotation Yrotation Zrotation
											End Site
											{
												OFFSET -1.082298 3.499527 0.457670
											}
										}
									}
								}
								JOINT LeftHandRing1
								{
									OFFSET 13.966164 -0.268127 -3.067488
									CHANNELS 3 Xrotation Yrotation Zrotation
									JOINT LeftHandRing2
									{
										OFFSET 3.162567 0.000000 0.000000
										CHANNELS 3 Xrotation Yrotation Zrotation
										JOINT LeftHandRing3
										{
											OFFSET 3.324348 0.000000 0.000000
											CHANNELS 3 Xrotation Yrotation Zrotation
											End Site
											{
												OFFSET -0.861900 3.184998 0.405154
											}
										}
									}
								}
								JOINT LeftHandPinky1
								{
									OFFSET 13.131393 -0.168503 -5.746925
									CHANNELS 3 Xrotation Yrotation Zrotation
									JOINT LeftHandPinky2
									{
										OFFSET 2.849182 0.000000 0.000000
										CHANNELS 3 Xrotation Yrotation Zrotation
										JOINT LeftHandPinky3
										{
											OFFSET 2.805038 0.000000 0.000000
											CHANNELS 3 Xrotation Yrotation Zrotation
											End Site
											{
												OFFSET -0.882500 2.642609 0.325652
											}
										}
									}
								}
							}
							JOINT Left_Sleeve
							{
								OFFSET 6.592125 -0.646545 0.805568
								CHANNELS 3 Xrotation Yrotation Zrotation
								End Site
								{
									OFFSET -0.000179 20.275787 -0.000000
								}
							}
						}
					}
				}
				JOINT RightShoulder
				{
					OFFSET -5.731700 15.108002 -2.763700
					CHANNELS 3 Xrotation Yrotation Zrotation
					JOINT RightArm
					{
						OFFSET -9.825497 2.506317 -1.597400
						CHANNELS 3 Xrotation Yrotation Zrotation
						JOINT RightForeArm
						{
							OFFSET -21.966242 0.000000 0.000000
							CHANNELS 3 Xrotation Yrotation Zrotation
							JOINT RightHand
							{
								OFFSET -33.879032 0.000000 0.000000
								CHANNELS 3 Xrotation Yrotation Zrotation
								JOINT RightHandThumb1
								{
									OFFSET -6.715286 -2.359680 3.363841
									CHANNELS 3 Xrotation Yrotation Zrotation
									JOINT RightHandThumb2
									{
										OFFSET -2.507072 -1.447464 1.447461
										CHANNELS 3 Xrotation Yrotation Zrotation
										JOINT RightHandThumb3
										{
											OFFSET -2.898338 -1.673355 1.673357
											CHANNELS 3 Xrotation Yrotation Zrotation
											End Site
											{
												OFFSET 0.295959 3.727692 -0.131651
											}
										}
									}
								}
								JOINT RightHandIndex1
								{
									OFFSET -14.190811 -0.254547 3.840278
									CHANNELS 3 Xrotation Yrotation Zrotation
									JOINT RightHandIndex2
									{
										OFFSET -3.551727 0.000000 -0.000000
										CHANNELS 3 Xrotation Yrotation Zrotation
										JOINT RightHandIndex3
										{
											OFFSET -2.894196 0.000000 0.000000
											CHANNELS 3 Xrotation Yrotation Zrotation
											End Site
											{
												OFFSET 1.000603 2.690872 0.366626
											}
										}
									}
								}
								JOINT RightHandMiddle1
								{
									OFFSET -13.776489 0.000000 0.000000
									CHANNELS 3 Xrotation Yrotation Zrotation
									JOINT RightHandMiddle2
									{
										OFFSET -3.438232 0.000000 0.000000
										CHANNELS 3 Xrotation Yrotation Zrotation
										JOINT RightHandMiddle3
										{
											OFFSET -3.691551 0.000000 0.000000
											CHANNELS 3 Xrotation Yrotation Zrotation
											End Site
											{
												OFFSET 1.082298 3.499527 0.457670
											}
										}
									}
								}
								JOINT RightHandRing1
								{
									OFFSET -13.966164 -0.268127 -3.067488
									CHANNELS 3 Xrotation Yrotation Zrotation
									JOINT RightHandRing2
									{
										OFFSET -3.162567 0.000000 0.000000
										CHANNELS 3 Xrotation Yrotation Zrotation
										JOINT RightHandRing3
										{
											OFFSET -3.324348 0.000000 0.000000
											CHANNELS 3 Xrotation Yrotation Zrotation
											End Site
											{
												OFFSET 0.861900 3.184998 0.405154
											}
										}
									}
								}
								JOINT RightHandPinky1
								{
									OFFSET -13.131393 -0.168503 -5.746925
									CHANNELS 3 Xrotation Yrotation Zrotation
									JOINT RightHandPinky2
									{
										OFFSET -2.849182 0.000000 0.000000
										CHANNELS 3 Xrotation Yrotation Zrotation
										JOINT RightHandPinky3
										{
											OFFSET -2.805038 0.000000 0.000000
											CHANNELS 3 Xrotation Yrotation Zrotation
											End Site
											{
												OFFSET 0.882500 2.642609 0.325652
											}
										}
									}
								}
							}
							JOINT Right_Sleeve
							{
								OFFSET -6.592125 -0.646545 0.805568
								CHANNELS 3 Xrotation Yrotation Zrotation
								End Site
								{
									OFFSET 0.000179 20.275787 -0.000000
								}
							}
						}
					}
				}
				JOINT Bind_Right_JacketString
				{
					OFFSET -3.534800 11.969597 7.200700
					CHANNELS 3 Xrotation Yrotation Zrotation
					JOINT Bind_Right_JacketString1
					{
						OFFSET -0.319900 -6.102600 2.794100
						CHANNELS 3 Xrotation Yrotation Zrotation
						End Site
						{
							OFFSET 0.000000 6.719452 0.000000
						}
					}
				}
				JOINT Bind_Left_JacketString
				{
					OFFSET 2.904800 11.969597 7.200700
					CHANNELS 3 Xrotation Yrotation Zrotation
					JOINT Bind_Left_JacketString1
					{
						OFFSET 0.364800 -5.904503 3.186800
						CHANNELS 3 Xrotation Yrotation Zrotation
						End Site
						{
							OFFSET 0.000000 6.719513 0.000000
						}
					}
				}
				JOINT HairE
				{
					OFFSET 5.915200 17.612701 -11.592200
					CHANNELS 3 Xrotation Yrotation Zrotation
					JOINT HairE1
					{
						OFFSET 0.289200 -7.171898 -1.284500
						CHANNELS 3 Xrotation Yrotation Zrotation
						End Site
						{
							OFFSET 0.000000 7.291756 0.000000
						}
					}
				}
				JOINT HairF
				{
					OFFSET -0.864800 17.612701 -11.592200
					CHANNELS 3 Xrotation Yrotation Zrotation
					JOINT HairF1
					{
						OFFSET 0.000000 -14.087097 -2.127501
						CHANNELS 3 Xrotation Yrotation Zrotation
						End Site
						{
							OFFSET 0.000000 14.246841 0.000000
						}
					}
				}
				JOINT HairG
				{
					OFFSET -8.087700 17.612701 -11.592200
					CHANNELS 3 Xrotation Yrotation Zrotation
					JOINT HairG1
					{
						OFFSET -0.293600 -6.081398 -0.910100
						CHANNELS 3 Xrotation Yrotation Zrotation
						End Site
						{
							OFFSET 0.000000 6.156120 0.000000
						}
					}
				}
			}
		}
	}
	JOINT Pouch
	{
		OFFSET 0.000000 4.394501 10.847300
		CHANNELS 3 Xrotation Yrotation Zrotation
		End Site
		{
			OFFSET 0.000000 21.880577 0.000000
		}
	}
	JOINT Bag
	{
		OFFSET -13.229000 4.813004 -0.593300
		CHANNELS 3 Xrotation Yrotation Zrotation
		End Site
		{
			OFFSET 0.000000 21.880577 0.000000
		}
	}
	JOINT OccupyGuyFacialAnim_Joint
	{
		OFFSET 1.000000 -70.206398 -1.655000
		CHANNELS 3 Xrotation Yrotation Zrotation
		End Site
		{
			OFFSET 0.000000 21.880577 0.000000
		}
	}
}
MOTION
Frames: 4
Frame Time: 0.016667
0.067303 9.301235 -1.587509 -86.966709 -3.525965 -0.056319 0.000000 -0.000000 -0.000000 -21.808900 14.697095 -7.132111 25.395888 -7.018168 -9.614643 -2.779017 9.215425 7.434477 0.000000 0.000001 -0.000000 -0.000002 -0.000000 0.000000 -3.774103 -10.250597 0.587795 -1.404786 -4.458662 4.860945 13.576086 -4.381642 27.525994 -0.000001 -0.000000 -0.000002 0.000000 -0.000000 -0.000001 0.076857 1.983589 -2.375533 -2.894336 0.722157 -0.032029 -2.892141 0.750137 -0.008814 4.260102 0.456928 0.133952 4.823574 3.550531 10.429255 -0.000000 -0.000000 -0.000000 -0.000000 -0.000000 -0.000000 -0.000000 -0.000000 0.000000 -0.000000 -0.000000 -0.000000 -0.000000 -0.000000 -0.000000 -0.000000 -0.000000 -0.000000 -0.000000 -0.000000 -0.000000 -0.000000 -0.000000 -0.000000 -0.000000 -0.000000 -0.000000 1.575195 -15.462660 -0.386117 21.370842 -1.052517 -73.139148 -0.000002 -137.558439 -0.000007 -17.216069 17.260895 -40.864899 -7.747742 -16.408840 12.046778 7.558181 31.509538 -3.040775 0.000000 -0.000000 -0.000004 0.259314 3.223718 10.217937 0.789876 2.939694 -30.073692 0.000001 0.000001 -0.000003 -0.267157 2.447518 18.123156 0.825496 3.000279 -30.761085 0.000001 0.000001 -0.000003 -0.192992 1.876673 21.842781 0.923689 3.159211 -32.588721 -0.000000 0.000000 0.000000 -3.484229 5.349099 23.881637 0.640532 2.665503 -27.019979 0.000001 -0.000001 -0.000001 -0.000000 -0.000001 0.000001 0.537269 6.692242 0.071574 17.297893 6.543537 66.743700 0.000008 132.968060 -0.000003 -16.839263 -11.628792 48.900698 -19.372322 9.812746 -17.628162 16.805781 -33.149104 6.482065 0.000001 -0.000001 0.000003 -0.578711 -1.290238 19.415299 0.000002 -0.000000 0.000002 0.000001 -0.000001 -0.000000 0.900189 -7.884230 9.062696 0.294484 -1.631366 20.463687 0.000002 -0.000001 -0.000001 0.740071 -10.091156 4.911406 1.354392 -3.285251 44.799976 0.000000 0.000001 0.000002 0.507052 -5.672359 8.465992 1.111094 -3.020978 40.379061 -0.000000 -0.000000 0.000000 0.000000 -0.000000 -0.000001 -0.000000 0.000000 -0.000000 -0.000000 0.000000 -0.000000 -0.000000 0.000000 -0.000000 -0.000000 0.000000 -0.000000 -0.000000 0.000000 -0.000000 -0.000000 0.000000 -0.000000 -0.000000 0.000000 -0.000000 -0.000000 0.000000 -0.000000 -0.000000 0.000000 -0.000000 -0.000000 0.000000 -0.000000 0.000000 -0.000000 -0.000000 0.000000 -0.000000 -0.000000 0.000000 -0.000000 -0.000000 
0.066745 9.302631 -1.584122 -86.972706 -3.527065 -0.058712 -0.000000 0.000000 -0.000000 -21.818170 14.697698 -7.124511 25.426214 -7.018181 -9.617982 -2.793444 9.193302 7.437993 -0.000000 0.000000 -0.000000 -0.000001 -0.000001 0.000002 -3.742466 -10.249047 0.592660 -1.433712 -4.483258 4.860852 13.547474 -4.374220 27.543187 -0.000001 -0.000002 0.000001 0.000000 -0.000002 -0.000000 0.081141 1.973837 -2.366158 -2.899782 0.719092 -0.031225 -2.897559 0.747077 -0.008095 4.272382 0.440566 0.143374 4.853057 3.381549 10.433355 -0.000000 -0.000000 -0.000001 -0.000000 -0.000000 -0.000001 -0.000000 -0.000000 -0.000000 -0.000000 -0.000000 -0.000001 -0.000000 -0.000000 0.000000 -0.000000 -0.000000 -0.000001 -0.000000 -0.000000 0.000000 -0.000000 -0.000000 -0.000001 -0.000000 -0.000000 -0.000001 1.572094 -15.451425 -0.406930 21.322437 -0.990312 -73.108391 0.000013 -137.648912 0.000010 -16.964901 17.158770 -40.725047 -7.677256 -16.481627 12.448418 7.558179 31.509541 -3.040786 0.000001 -0.000000 -0.000003 0.216535 3.322620 9.268480 0.755085 2.878847 -29.388214 0.000002 0.000000 -0.000000 -0.267948 2.540365 17.341949 0.825496 3.000281 -30.761089 0.000000 0.000001 -0.000001 -0.202647 1.974548 21.008619 0.883418 3.095403 -31.850521 -0.000001 -0.000000 -0.000002 -3.543191 5.418525 23.634326 0.608912 2.602633 -26.331957 -0.000001 -0.000000 -0.000002 0.000000 -0.000000 0.000000 0.542302 6.731887 0.071286 17.280957 6.510345 66.772804 0.000048 132.980354 -0.000042 -16.827510 -11.646454 48.903000 -19.372326 9.812748 -17.628162 16.805778 -33.149107 6.482067 0.000000 -0.000001 0.000002 -0.578711 -1.290238 19.415306 0.000004 -0.000000 0.000004 -0.000000 0.000001 0.000002 0.900188 -7.884228 9.062695 0.294487 -1.631367 20.463686 0.000001 -0.000001 0.000001 0.740069 -10.091154 4.911402 1.354390 -3.285251 44.799966 -0.000000 -0.000002 -0.000001 0.507048 -5.672358 8.465992 1.111092 -3.020976 40.379054 0.000001 -0.000001 0.000004 -0.000001 0.000000 -0.000001 0.000000 -0.000000 0.000000 -0.000000 0.000000 0.000000 0.000000 -0.000000 0.000000 0.000000 -0.000000 0.000000 0.000000 -0.000000 0.000000 -0.000000 0.000000 0.000000 0.000000 -0.000000 0.000000 0.000000 -0.000000 0.000000 0.000000 -0.000000 0.000000 -0.000000 0.000000 0.000000 -0.000000 0.000000 -0.000000 -0.000000 0.000000 -0.000000 -0.000000 0.000000 -0.000000 
0.066669 9.304066 -1.580643 -86.978689 -3.526685 -0.061396 0.000000 -0.000000 -0.000000 -21.827140 14.698292 -7.117278 25.456798 -7.017852 -9.621554 -2.808103 9.170045 7.442115 0.000000 0.000000 0.000000 0.000001 -0.000001 0.000000 -3.750550 -10.249997 0.589904 -1.385117 -4.494366 4.861241 13.479476 -4.375887 27.566790 0.000001 -0.000003 -0.000001 0.000000 -0.000001 -0.000000 0.088042 1.964326 -2.355388 -2.905655 0.716117 -0.029207 -2.903447 0.744094 -0.006157 4.284328 0.424950 0.153657 4.886330 3.221610 10.436329 -0.000000 0.000000 0.000000 -0.000000 0.000000 0.000000 -0.000000 0.000000 0.000000 -0.000000 0.000000 -0.000001 -0.000000 0.000000 0.000000 -0.000000 0.000000 -0.000001 -0.000000 0.000000 0.000000 -0.000000 0.000000 0.000000 -0.000000 0.000000 0.000000 1.568773 -15.437780 -0.427668 21.271670 -0.938637 -73.079992 0.000019 -137.717733 0.000001 -16.836751 17.157160 -40.835696 -7.606045 -16.554686 12.852129 7.558181 31.509541 -3.040781 -0.000000 -0.000000 0.000004 0.175410 3.423357 8.317325 0.720860 2.817297 -28.699471 0.000001 0.000001 0.000000 -0.267359 2.633420 16.559251 0.825490 3.000279 -30.761089 0.000001 0.000001 -0.000001 -0.210762 2.072776 20.172851 0.843785 3.030766 -31.108803 -0.000001 -0.000001 -0.000000 -3.600512 5.485846 23.389131 0.577899 2.539079 -25.640624 0.000001 -0.000000 -0.000003 -0.000001 0.000001 -0.000001 0.546423 6.771666 0.070982 17.268878 6.484059 66.804250 0.000010 132.996009 0.000002 -16.820432 -11.675024 48.886078 -19.372324 9.812747 -17.628162 16.805781 -33.149107 6.482066 0.000001 -0.000000 0.000003 -0.578710 -1.290238 19.415306 0.000000 -0.000000 0.000005 -0.000001 0.000000 -0.000003 0.900188 -7.884230 9.062700 0.294483 -1.631367 20.463686 -0.000000 0.000001 -0.000001 0.740071 -10.091155 4.911405 1.354389 -3.285248 44.799972 0.000002 0.000002 -0.000002 0.507050 -5.672359 8.465990 1.111094 -3.020975 40.379054 -0.000001 -0.000000 -0.000001 -0.000001 -0.000001 -0.000001 -0.000000 0.000000 0.000000 -0.000000 -0.000000 -0.000000 -0.000000 0.000000 0.000000 -0.000000 0.000000 0.000000 -0.000000 0.000000 0.000000 -0.000000 -0.000000 0.000000 -0.000000 0.000000 0.000000 -0.000000 0.000000 0.000000 -0.000000 0.000000 0.000000 -0.000000 -0.000000 0.000000 0.000000 -0.000000 -0.000000 0.000000 -0.000000 -0.000000 0.000000 -0.000000 -0.000000 
0.067026 9.305412 -1.577187 -86.984447 -3.524751 -0.064247 -0.000000 -0.000000 0.000000 -21.835445 14.698857 -7.110720 25.485924 -7.017105 -9.625135 -2.821584 9.145807 7.446808 -0.000000 -0.000001 -0.000000 -0.000003 0.000000 -0.000000 -3.703042 -10.248285 0.596454 -1.443981 -4.527400 4.861914 13.463997 -4.365667 27.584409 0.000001 0.000002 0.000000 0.000000 0.000001 -0.000001 0.096396 1.956056 -2.344925 -2.910619 0.713544 -0.026432 -2.908357 0.741505 -0.003458 4.294644 0.409459 0.165082 4.917914 3.065240 10.438751 -0.000000 -0.000000 -0.000000 -0.000000 -0.000000 -0.000000 -0.000000 -0.000000 0.000000 -0.000000 -0.000000 -0.000000 -0.000000 0.000000 -0.000000 -0.000000 -0.000000 -0.000000 -0.000000 0.000000 -0.000000 -0.000000 -0.000000 -0.000000 -0.000000 -0.000000 -0.000000 1.565689 -15.422391 -0.445047 21.221000 -0.901433 -73.058285 -0.000003 -137.753618 0.000020 -16.852081 17.263884 -41.211347 -7.535788 -16.626286 13.248367 7.558180 31.509538 -3.040779 0.000001 0.000001 -0.000004 0.136841 3.523652 7.385379 0.688005 2.756507 -28.023754 0.000001 0.000001 -0.000002 -0.265442 2.724612 15.792272 0.825492 3.000275 -30.761085 0.000000 -0.000000 -0.000001 -0.217210 2.169171 19.353901 0.805712 2.966852 -30.381101 -0.000000 0.000001 0.000001 -3.655683 5.551054 23.150129 0.548226 2.476364 -24.962386 0.000001 -0.000001 -0.000006 -0.000001 -0.000001 0.000001 0.549131 6.804088 0.070729 17.259758 6.469275 66.833094 0.000044 133.013249 -0.000046 -16.816563 -11.710425 48.858826 -19.372329 9.812747 -17.628158 16.805778 -33.149101 6.482069 0.000001 -0.000002 0.000003 -0.578713 -1.290239 19.415303 0.000001 -0.000000 0.000004 -0.000000 -0.000000 -0.000002 0.900188 -7.884230 9.062697 0.294487 -1.631367 20.463687 0.000000 -0.000000 -0.000003 0.740066 -10.091155 4.911404 1.354388 -3.285250 44.799972 -0.000000 0.000004 -0.000003 0.507047 -5.672359 8.465992 1.111091 -3.020976 40.379057 0.000000 -0.000001 0.000000 0.000001 -0.000001 -0.000001 -0.000000 -0.000000 0.000000 -0.000000 -0.000000 0.000000 -0.000000 -0.000000 0.000000 -0.000000 -0.000000 0.000000 -0.000000 -0.000000 0.000000 -0.000000 -0.000000 0.000000 -0.000000 -0.000000 0.000000 -0.000000 -0.000000 0.000000 -0.000000 -0.000000 0.000000 -0.000000 -0.000000 0.000000 -0.000000 -0.000000 0.000000 -0.000000 -0.000000 0.000000 -0.000000 -0.000000 0.000000 
